<svg width="186" height="186" viewBox="0 0 186 186" fill="none" xmlns="http://www.w3.org/2000/svg">
<g filter="url(#filter0_d)">
<ellipse cx="93" cy="135" rx="27" ry="28" fill="#E44A45" fill-opacity="0.9"/>
<path d="M117.5 135C117.5 149.17 106.446 160.5 93 160.5C79.5539 160.5 68.5 149.17 68.5 135C68.5 120.83 79.5539 109.5 93 109.5C106.446 109.5 117.5 120.83 117.5 135Z" stroke="#C93D39" stroke-width="5"/>
</g>
<g filter="url(#filter1_d)">
<ellipse cx="93" cy="100.5" rx="27" ry="27.5" fill="#A666C6" fill-opacity="0.9"/>
<path d="M117.5 100.5C117.5 114.351 106.488 125.5 93 125.5C79.5121 125.5 68.5 114.351 68.5 100.5C68.5 86.6494 79.5121 75.5 93 75.5C106.488 75.5 117.5 86.6494 117.5 100.5Z" stroke="#945BB0" stroke-width="5"/>
</g>
<g filter="url(#filter2_d)">
<ellipse cx="93" cy="66" rx="27" ry="28" fill="#43AE34" fill-opacity="0.9"/>
<path d="M117.5 66C117.5 80.1697 106.446 91.5 93 91.5C79.5539 91.5 68.5 80.1697 68.5 66C68.5 51.8303 79.5539 40.5 93 40.5C106.446 40.5 117.5 51.8303 117.5 66Z" stroke="#3B972E" stroke-width="5"/>
</g>
<circle cx="84" cy="24" r="8" fill="#C93D39"/>
<path d="M101 8C101 12.4183 97.4183 16 93 16C88.5817 16 85 12.4183 85 8C85 3.58172 88.5817 0 93 0C97.4183 0 101 3.58172 101 8Z" fill="#3B972E"/>
<circle cx="102" cy="24" r="8" fill="#945BB0"/>
<path d="M52 35V133.932C52 133.932 52 179.915 93.5 178.986" stroke="black" stroke-width="13"/>
<path d="M135 35V133.932C135 133.932 135 179.915 93.5 178.986" stroke="black" stroke-width="13"/>
<defs>
<filter id="filter0_d" x="62" y="107" width="62" height="64" filterUnits="userSpaceOnUse" color-interpolation-filters="sRGB">
<feFlood flood-opacity="0" result="BackgroundImageFix"/>
<feColorMatrix in="SourceAlpha" type="matrix" values="0 0 0 0 0 0 0 0 0 0 0 0 0 0 0 0 0 0 127 0"/>
<feOffset dy="4"/>
<feGaussianBlur stdDeviation="2"/>
<feColorMatrix type="matrix" values="0 0 0 0 0 0 0 0 0 0 0 0 0 0 0 0 0 0 0.25 0"/>
<feBlend mode="normal" in2="BackgroundImageFix" result="effect1_dropShadow"/>
<feBlend mode="normal" in="SourceGraphic" in2="effect1_dropShadow" result="shape"/>
</filter>
<filter id="filter1_d" x="62" y="73" width="62" height="63" filterUnits="userSpaceOnUse" color-interpolation-filters="sRGB">
<feFlood flood-opacity="0" result="BackgroundImageFix"/>
<feColorMatrix in="SourceAlpha" type="matrix" values="0 0 0 0 0 0 0 0 0 0 0 0 0 0 0 0 0 0 127 0"/>
<feOffset dy="4"/>
<feGaussianBlur stdDeviation="2"/>
<feColorMatrix type="matrix" values="0 0 0 0 0 0 0 0 0 0 0 0 0 0 0 0 0 0 0.25 0"/>
<feBlend mode="normal" in2="BackgroundImageFix" result="effect1_dropShadow"/>
<feBlend mode="normal" in="SourceGraphic" in2="effect1_dropShadow" result="shape"/>
</filter>
<filter id="filter2_d" x="62" y="38" width="62" height="64" filterUnits="userSpaceOnUse" color-interpolation-filters="sRGB">
<feFlood flood-opacity="0" result="BackgroundImageFix"/>
<feColorMatrix in="SourceAlpha" type="matrix" values="0 0 0 0 0 0 0 0 0 0 0 0 0 0 0 0 0 0 127 0"/>
<feOffset dy="4"/>
<feGaussianBlur stdDeviation="2"/>
<feColorMatrix type="matrix" values="0 0 0 0 0 0 0 0 0 0 0 0 0 0 0 0 0 0 0.25 0"/>
<feBlend mode="normal" in2="BackgroundImageFix" result="effect1_dropShadow"/>
<feBlend mode="normal" in="SourceGraphic" in2="effect1_dropShadow" result="shape"/>
</filter>
</defs>
</svg>
