<svg width="917" height="192" viewBox="0 0 917 192" fill="none" xmlns="http://www.w3.org/2000/svg">
<g clip-path="url(#clip0)">
<g filter="url(#filter0_d)">
<ellipse cx="816" cy="135" rx="27" ry="28" fill="#E44A45" fill-opacity="0.9"/>
<path d="M840.5 135C840.5 149.17 829.446 160.5 816 160.5C802.554 160.5 791.5 149.17 791.5 135C791.5 120.83 802.554 109.5 816 109.5C829.446 109.5 840.5 120.83 840.5 135Z" stroke="#C93D39" stroke-width="5"/>
</g>
<path d="M5.69531 145V136.141L17.1562 134.172V53.5234L5.69531 51.5547V42.625H52.7344C63.6562 42.625 72.1406 45.4375 78.1875 51.0625C84.2812 56.6875 87.3281 64.0938 87.3281 73.2812C87.3281 82.5625 84.2812 89.9922 78.1875 95.5703C72.1406 101.148 63.6562 103.938 52.7344 103.938H31.0078V134.172L42.4688 136.141V145H5.69531ZM31.0078 93.1094H52.7344C59.6719 93.1094 64.8516 91.2578 68.2734 87.5547C71.7422 83.8047 73.4766 79.0938 73.4766 73.4219C73.4766 67.75 71.7422 63.0156 68.2734 59.2188C64.8516 55.4219 59.6719 53.5234 52.7344 53.5234H31.0078V93.1094ZM95.7656 145V136.141L107.227 134.172V46.2109L95.7656 44.2422V35.3125H121.078V134.172L132.539 136.141V145H95.7656ZM175.922 146.477C167.672 146.477 161.227 143.828 156.586 138.531C151.945 133.234 149.625 124.984 149.625 113.781V79.8203L140.906 77.8516V68.9219H163.477V113.922C163.477 122.031 164.672 127.609 167.062 130.656C169.453 133.703 173.18 135.227 178.242 135.227C183.164 135.227 187.219 134.242 190.406 132.273C193.641 130.258 196.078 127.422 197.719 123.766V79.8203L187.523 77.8516V68.9219H211.57V134.172L220.289 136.141V145H199.125L198.211 133.75C195.82 137.828 192.727 140.969 188.93 143.172C185.18 145.375 180.844 146.477 175.922 146.477ZM256.922 146.195C251.297 146.195 246.82 144.555 243.492 141.273C240.211 137.945 238.57 132.648 238.57 125.383V79.1875H226.547V68.9219H238.57V50.5703H252.422V68.9219H268.945V79.1875H252.422V125.383C252.422 129.039 253.148 131.734 254.602 133.469C256.055 135.203 258 136.07 260.438 136.07C262.078 136.07 263.906 135.93 265.922 135.648C267.938 135.32 269.508 135.039 270.633 134.805L272.531 143.875C270.516 144.484 268.031 145.023 265.078 145.492C262.172 145.961 259.453 146.195 256.922 146.195ZM314.367 146.477C307.336 146.477 301.266 144.836 296.156 141.555C291.094 138.227 287.18 133.656 284.414 127.844C281.648 121.984 280.266 115.305 280.266 107.805V106.258C280.266 98.7578 281.648 92.1016 284.414 86.2891C287.18 80.4297 291.094 75.8359 296.156 72.5078C301.266 69.1797 307.289 67.5156 314.227 67.5156C321.258 67.5156 327.305 69.1797 332.367 72.5078C337.477 75.8359 341.414 80.4062 344.18 86.2188C346.945 92.0312 348.328 98.7109 348.328 106.258V107.805C348.328 115.352 346.945 122.055 344.18 127.914C341.414 133.727 337.5 138.273 332.438 141.555C327.375 144.836 321.352 146.477 314.367 146.477ZM314.367 135.648C320.93 135.648 325.922 133.023 329.344 127.773C332.766 122.523 334.477 115.867 334.477 107.805V106.258C334.477 100.914 333.703 96.1562 332.156 91.9844C330.656 87.7656 328.406 84.4609 325.406 82.0703C322.406 79.6328 318.68 78.4141 314.227 78.4141C309.82 78.4141 306.117 79.6328 303.117 82.0703C300.117 84.4609 297.867 87.7656 296.367 91.9844C294.867 96.1562 294.117 100.914 294.117 106.258V107.805C294.117 115.867 295.805 122.523 299.18 127.773C302.602 133.023 307.664 135.648 314.367 135.648ZM359.508 145V136.141L370.969 134.172V53.5234L359.508 51.5547V42.625H396.281V51.5547L384.82 53.5234V134.383H421.031L422.648 118.211H433.266V145H359.508ZM470.109 146.477C462.188 146.477 456.164 144.555 452.039 140.711C447.914 136.82 445.852 131.359 445.852 124.328C445.852 117.109 448.805 111.32 454.711 106.961C460.617 102.555 468.82 100.352 479.32 100.352H492.891V92.8984C492.891 88.3047 491.484 84.7422 488.672 82.2109C485.906 79.6797 481.992 78.4141 476.93 78.4141C473.742 78.4141 470.977 78.8125 468.633 79.6094C466.289 80.3594 464.156 81.4141 462.234 82.7734L460.758 93.3906H450.07V75.9531C456.961 70.3281 465.984 67.5156 477.141 67.5156C486.375 67.5156 493.617 69.7188 498.867 74.125C504.117 78.5312 506.742 84.8359 506.742 93.0391V129.672C506.742 130.656 506.742 131.617 506.742 132.555C506.789 133.492 506.859 134.43 506.953 135.367L514.336 136.141V145H494.438C493.641 141.156 493.148 137.664 492.961 134.523C490.289 137.945 486.938 140.805 482.906 143.102C478.922 145.352 474.656 146.477 470.109 146.477ZM472.148 134.875C476.742 134.875 480.938 133.773 484.734 131.57C488.531 129.367 491.25 126.719 492.891 123.625V109.844H478.828C472.453 109.844 467.672 111.367 464.484 114.414C461.297 117.461 459.703 120.859 459.703 124.609C459.703 131.453 463.852 134.875 472.148 134.875ZM565.523 146.477C555.727 146.477 548.367 142.727 543.445 135.227L542.18 145H530.227V46.2109L518.766 44.2422V35.3125H544.078V77.9219C546.469 74.5469 549.422 71.9688 552.938 70.1875C556.5 68.4062 560.648 67.5156 565.383 67.5156C571.664 67.5156 577.008 69.2266 581.414 72.6484C585.867 76.0234 589.266 80.7812 591.609 86.9219C594 93.0625 595.195 100.211 595.195 108.367V109.844C595.195 117.156 594 123.555 591.609 129.039C589.266 134.523 585.867 138.812 581.414 141.906C577.008 144.953 571.711 146.477 565.523 146.477ZM562.008 135.227C568.523 135.227 573.352 132.906 576.492 128.266C579.68 123.625 581.273 117.484 581.273 109.844V108.367C581.273 99.6016 579.68 92.4766 576.492 86.9922C573.305 81.5078 568.43 78.7656 561.867 78.7656C557.602 78.7656 553.992 79.7969 551.039 81.8594C548.133 83.9219 545.812 86.6875 544.078 90.1562V123.766C545.812 127.281 548.156 130.07 551.109 132.133C554.109 134.195 557.742 135.227 562.008 135.227ZM610.664 145V130.797H624.516V145H610.664ZM639.141 175.727C637.641 175.727 636.281 175.609 635.062 175.375C633.844 175.188 632.578 174.883 631.266 174.461L632.18 163.914C632.836 164.148 633.938 164.359 635.484 164.547C637.078 164.734 638.297 164.828 639.141 164.828C641.906 164.828 644.086 163.609 645.68 161.172C647.32 158.781 648.141 155.477 648.141 151.258V79.8203L636.68 77.8516V68.9219H661.992V151.258C661.992 159.086 659.977 165.109 655.945 169.328C651.914 173.594 646.312 175.727 639.141 175.727ZM647.438 50.1484V35.3125H661.992V50.1484H647.438ZM676.688 145V136.141L688.148 134.172V46.2109L676.688 44.2422V35.3125H702V134.172L713.461 136.141V145H676.688Z" fill="black"/>
<g filter="url(#filter1_d)">
<ellipse cx="816" cy="100.5" rx="27" ry="27.5" fill="#A666C6" fill-opacity="0.9"/>
<path d="M840.5 100.5C840.5 114.351 829.488 125.5 816 125.5C802.512 125.5 791.5 114.351 791.5 100.5C791.5 86.6494 802.512 75.5 816 75.5C829.488 75.5 840.5 86.6494 840.5 100.5Z" stroke="#945BB0" stroke-width="5"/>
</g>
<g filter="url(#filter2_d)">
<ellipse cx="816" cy="66" rx="27" ry="28" fill="#43AE34" fill-opacity="0.9"/>
<path d="M840.5 66C840.5 80.1697 829.446 91.5 816 91.5C802.554 91.5 791.5 80.1697 791.5 66C791.5 51.8303 802.554 40.5 816 40.5C829.446 40.5 840.5 51.8303 840.5 66Z" stroke="#3B972E" stroke-width="5"/>
</g>
<circle cx="807" cy="24" r="8" fill="#C93D39"/>
<path d="M824 8C824 12.4183 820.418 16 816 16C811.582 16 808 12.4183 808 8C808 3.58172 811.582 0 816 0C820.418 0 824 3.58172 824 8Z" fill="#3B972E"/>
<circle cx="825" cy="24" r="8" fill="#945BB0"/>
<path d="M775 35V133.932C775 133.932 775 179.915 816.5 178.986" stroke="black" stroke-width="13"/>
<path d="M858 35V133.932C858 133.932 858 179.915 816.5 178.986" stroke="black" stroke-width="13"/>
</g>
<defs>
<filter id="filter0_d" x="785" y="107" width="62" height="64" filterUnits="userSpaceOnUse" color-interpolation-filters="sRGB">
<feFlood flood-opacity="0" result="BackgroundImageFix"/>
<feColorMatrix in="SourceAlpha" type="matrix" values="0 0 0 0 0 0 0 0 0 0 0 0 0 0 0 0 0 0 127 0"/>
<feOffset dy="4"/>
<feGaussianBlur stdDeviation="2"/>
<feColorMatrix type="matrix" values="0 0 0 0 0 0 0 0 0 0 0 0 0 0 0 0 0 0 0.25 0"/>
<feBlend mode="normal" in2="BackgroundImageFix" result="effect1_dropShadow"/>
<feBlend mode="normal" in="SourceGraphic" in2="effect1_dropShadow" result="shape"/>
</filter>
<filter id="filter1_d" x="785" y="73" width="62" height="63" filterUnits="userSpaceOnUse" color-interpolation-filters="sRGB">
<feFlood flood-opacity="0" result="BackgroundImageFix"/>
<feColorMatrix in="SourceAlpha" type="matrix" values="0 0 0 0 0 0 0 0 0 0 0 0 0 0 0 0 0 0 127 0"/>
<feOffset dy="4"/>
<feGaussianBlur stdDeviation="2"/>
<feColorMatrix type="matrix" values="0 0 0 0 0 0 0 0 0 0 0 0 0 0 0 0 0 0 0.25 0"/>
<feBlend mode="normal" in2="BackgroundImageFix" result="effect1_dropShadow"/>
<feBlend mode="normal" in="SourceGraphic" in2="effect1_dropShadow" result="shape"/>
</filter>
<filter id="filter2_d" x="785" y="38" width="62" height="64" filterUnits="userSpaceOnUse" color-interpolation-filters="sRGB">
<feFlood flood-opacity="0" result="BackgroundImageFix"/>
<feColorMatrix in="SourceAlpha" type="matrix" values="0 0 0 0 0 0 0 0 0 0 0 0 0 0 0 0 0 0 127 0"/>
<feOffset dy="4"/>
<feGaussianBlur stdDeviation="2"/>
<feColorMatrix type="matrix" values="0 0 0 0 0 0 0 0 0 0 0 0 0 0 0 0 0 0 0.25 0"/>
<feBlend mode="normal" in2="BackgroundImageFix" result="effect1_dropShadow"/>
<feBlend mode="normal" in="SourceGraphic" in2="effect1_dropShadow" result="shape"/>
</filter>
<clipPath id="clip0">
<rect width="917" height="192" fill="white"/>
</clipPath>
</defs>
</svg>
